<svg xmlns="http://www.w3.org/2000/svg" viewBox="0 0 512 512" role="img" aria-labelledby="title">
  <title id="title">RétroMax</title>
  <defs>
    <radialGradient id="glow" cx="50%" cy="12%" r="86%">
      <stop offset="0" stop-color="#503f16"/>
      <stop offset=".58" stop-color="#17171b"/>
      <stop offset="1" stop-color="#0b0b0d"/>
    </radialGradient>
    <linearGradient id="shell" x1="0" y1="0" x2="1" y2="1">
      <stop offset="0" stop-color="#ffffff"/>
      <stop offset="1" stop-color="#d9d9df"/>
    </linearGradient>
  </defs>
  <rect width="512" height="512" fill="url(#glow)"/>
  <path fill="url(#shell)" d="M151 159h210c37 0 68 26 77 62l26 106c8 34-17 66-52 66-19 0-37-10-47-27l-36-58H183l-36 58c-10 17-28 27-47 27-35 0-60-32-52-66l26-106c9-36 40-62 77-62Z"/>
  <path fill="#0b0b0d" d="M161 210h28v29h29v28h-29v29h-28v-29h-29v-28h29Z"/>
  <circle cx="352" cy="224" r="18" fill="#f7cf46"/>
  <circle cx="394" cy="266" r="18" fill="#a879ff"/>
  <circle cx="352" cy="282" r="12" fill="#0b0b0d" opacity=".72"/>
  <path d="M235 233h42" stroke="#0b0b0d" stroke-width="14" stroke-linecap="round" opacity=".78"/>
  <path d="M248 263h16" stroke="#0b0b0d" stroke-width="14" stroke-linecap="round" opacity=".55"/>
</svg>
